<?xml version="1.0" encoding="UTF-8"?>
<svg data-bbox="0.634 0.025 199.932 67.675" xmlns="http://www.w3.org/2000/svg" viewBox="0 0 201 68" height="68" width="201" data-type="color">
    <g>
        <path fill="#ffffff" d="M11.582 31.24c.423-1.893 1.27-3.114 2.27-4.09 1.762-1.721 4.22-2.937 7.782-4.682l.034-.017c3.213-1.574 7.405-3.628 10.654-7.06 3.512-3.712 5.623-8.655 5.623-15.366h-10.66c0 4.216-1.221 6.469-2.706 8.038-1.737 1.836-4.19 3.144-7.635 4.832l-.576.281c-3.031 1.479-6.925 3.379-9.964 6.347C2.842 23.001.634 27.69.634 34.138v3.066l31.965 18.598 5.361-9.214L11.582 31.24Z" clip-rule="evenodd" fill-rule="evenodd" data-color="1"/>
        <path fill="#ffffff" d="M51.859 27.46c-1.77.813-3.102 2.335-3.548 3.233a5.38 5.38 0 0 1-.18.332l-5.386 9.149-9.187-5.408 5.302-9.007c1.548-2.993 4.616-6.18 8.55-7.987 4.295-1.972 9.802-2.342 15.203 1.085 5.213 3.308 7.37 7.993 7.627 12.586.238 4.26-1.154 8.129-2.334 10.582a5.398 5.398 0 0 1-.177.336L53.231 67.7l-9.252-5.295 14.396-25.163c.757-1.618 1.315-3.53 1.221-5.205-.078-1.397-.58-2.838-2.695-4.18-1.926-1.222-3.549-1.084-5.042-.398Z" clip-rule="evenodd" fill-rule="evenodd" data-color="1"/>
        <path fill="#ffffff" d="M93.637 40.574c-2.784 0-4.768-.592-5.952-1.776-1.184-1.184-1.776-3.04-1.776-5.568V7.742h9.024v24.48c0 .704.144 1.184.432 1.44.288.224.736.336 1.344.336.416 0 .816-.032 1.2-.096.416-.064.8-.16 1.152-.288v6c-.832.32-1.648.56-2.448.72-.768.16-1.76.24-2.976.24Z" data-color="1"/>
        <path fill="#ffffff" d="M108.274 40.574c-2.656 0-4.736-.752-6.24-2.256-1.504-1.504-2.256-3.712-2.256-6.624V17.342h9.024v13.632c0 1.984 1.008 2.976 3.024 2.976a5.17 5.17 0 0 0 2.16-.48c.704-.32 1.264-.72 1.68-1.2V17.342h9.024v22.752h-8.448l-.24-1.728c-.896.64-2 1.168-3.312 1.584-1.28.416-2.752.624-4.416.624Z" data-color="1"/>
        <path fill="#ffffff" d="M141.419 40.574c-4.128 0-7.392-.976-9.792-2.928-2.4-1.984-3.6-4.96-3.6-8.928 0-2.688.56-4.912 1.68-6.672 1.12-1.76 2.688-3.056 4.704-3.888 2.016-.864 4.368-1.296 7.056-1.296 1.696 0 3.216.128 4.56.384a14.49 14.49 0 0 1 3.84 1.2v6.336c-1.888-.896-4.032-1.344-6.432-1.344-2.048 0-3.6.384-4.656 1.152-1.024.768-1.536 2.144-1.536 4.128 0 1.856.496 3.2 1.488 4.032.992.832 2.56 1.248 4.704 1.248a14.62 14.62 0 0 0 3.36-.384 15.34 15.34 0 0 0 3.12-1.2v6.624a15.591 15.591 0 0 1-3.936 1.152c-1.376.256-2.896.384-4.56.384Z" data-color="1"/>
        <path fill="#ffffff" d="M160.372 40.574c-1.44 0-2.784-.256-4.032-.768a6.513 6.513 0 0 1-2.928-2.4c-.736-1.088-1.104-2.464-1.104-4.128 0-2.4.8-4.256 2.4-5.568 1.6-1.344 4.016-2.016 7.248-2.016h5.904v-.432c0-.896-.368-1.552-1.104-1.968-.736-.416-2.032-.624-3.888-.624-2.624 0-5.216.4-7.776 1.2v-5.424c1.152-.448 2.592-.816 4.32-1.104 1.728-.32 3.488-.48 5.28-.48 3.616 0 6.48.736 8.592 2.208 2.112 1.472 3.168 3.808 3.168 7.008v14.016h-7.872l-.432-1.824c-.8.704-1.84 1.264-3.12 1.68-1.248.416-2.8.624-4.656.624Zm3.072-5.28c1.024 0 1.888-.176 2.592-.528.736-.352 1.344-.784 1.824-1.296v-2.832h-4.368c-1.984 0-2.976.784-2.976 2.352 0 1.536.976 2.304 2.928 2.304Z" data-color="1"/>
        <path fill="#ffffff" d="M189.43 40.574c-1.952 0-3.792-.144-5.52-.432-1.696-.256-3.04-.592-4.032-1.008v-6.48c1.12.512 2.448.912 3.984 1.2 1.568.288 2.896.432 3.984.432 1.152 0 2.016-.032 2.592-.096.608-.064.912-.336.912-.816 0-.544-.528-.96-1.584-1.248-1.056-.288-2.384-.704-3.984-1.248-2.08-.736-3.632-1.6-4.656-2.592-1.024-.992-1.536-2.432-1.536-4.32 0-2.272.896-4.016 2.688-5.232 1.792-1.248 4.608-1.872 8.448-1.872 1.472 0 2.992.112 4.56.336 1.568.224 2.8.48 3.696.768v6.336c-.96-.416-2.016-.72-3.168-.912-1.12-.192-2.144-.288-3.072-.288-1.024 0-1.936.048-2.736.144-.8.096-1.2.368-1.2.816 0 .512.448.88 1.344 1.104.928.224 2.16.576 3.696 1.056 1.728.512 3.072 1.072 4.032 1.68.992.608 1.68 1.344 2.064 2.208.416.864.624 1.936.624 3.216 0 2.304-.944 4.096-2.832 5.376-1.856 1.248-4.624 1.872-8.304 1.872Z" data-color="1"/>
        <path fill="#ffffff" d="M89.972 59.992a5.26 5.26 0 0 1-2.016-.384 3.374 3.374 0 0 1-1.464-1.152c-.368-.528-.552-1.176-.552-1.944 0-1.088.368-1.96 1.104-2.616.752-.672 1.904-1.008 3.456-1.008h3.648v-.504c0-.544-.088-.976-.264-1.296-.16-.32-.464-.552-.912-.696-.432-.144-1.072-.216-1.92-.216-1.344 0-2.6.2-3.768.6v-1.944c.512-.208 1.136-.376 1.872-.504a13.877 13.877 0 0 1 2.376-.192c1.664 0 2.928.336 3.792 1.008.88.672 1.32 1.768 1.32 3.288v7.32h-2.232l-.168-1.152c-.464.448-1.04.792-1.728 1.032-.672.24-1.52.36-2.544.36Zm.696-1.872c.784 0 1.464-.128 2.04-.384.592-.272 1.072-.632 1.44-1.08v-1.992h-3.6c-.768 0-1.328.152-1.68.456-.336.288-.504.736-.504 1.344 0 .592.2 1.016.6 1.272.4.256.968.384 1.704.384Z" data-color="1"/>
        <path fill="#ffffff" d="M99.545 59.752V48.376h2.4l.144 1.32a10.48 10.48 0 0 1 1.944-.96 10.766 10.766 0 0 1 2.232-.6v1.992c-.448.08-.936.2-1.464.36-.512.144-1 .312-1.464.504a7.41 7.41 0 0 0-1.176.552v8.208h-2.616Z" data-color="1"/>
        <path fill="#ffffff" d="M110.995 59.992a5.26 5.26 0 0 1-2.016-.384 3.374 3.374 0 0 1-1.464-1.152c-.368-.528-.552-1.176-.552-1.944 0-1.088.368-1.96 1.104-2.616.752-.672 1.904-1.008 3.456-1.008h3.648v-.504c0-.544-.088-.976-.264-1.296-.16-.32-.464-.552-.912-.696-.432-.144-1.072-.216-1.92-.216-1.344 0-2.6.2-3.768.6v-1.944c.512-.208 1.136-.376 1.872-.504a13.877 13.877 0 0 1 2.376-.192c1.664 0 2.928.336 3.792 1.008.88.672 1.32 1.768 1.32 3.288v7.32h-2.232l-.168-1.152c-.464.448-1.04.792-1.728 1.032-.672.24-1.52.36-2.544.36Zm.696-1.872c.784 0 1.464-.128 2.04-.384.592-.272 1.072-.632 1.44-1.08v-1.992h-3.6c-.768 0-1.328.152-1.68.456-.336.288-.504.736-.504 1.344 0 .592.2 1.016.6 1.272.4.256.968.384 1.704.384Z" data-color="1"/>
        <path fill="#ffffff" d="M124.672 59.992c-1.36 0-2.408-.376-3.144-1.128-.72-.752-1.08-1.856-1.08-3.312v-7.176h2.616v7.176c0 .848.208 1.472.624 1.872.416.4 1.056.6 1.92.6.64 0 1.232-.12 1.776-.36a4.614 4.614 0 0 0 1.416-.96v-8.328h2.592v11.376h-2.376l-.12-1.176c-.512.4-1.12.736-1.824 1.008s-1.504.408-2.4.408Z" data-color="1"/>
        <path fill="#ffffff" d="M135.955 46v-2.16h2.856V46h-2.856Zm-.84 19.368c-.928 0-1.72-.128-2.376-.384v-1.896c.272.08.528.136.768.168.256.048.488.072.696.072.752 0 1.272-.136 1.56-.408.304-.272.456-.72.456-1.344V50.368h-1.728l.24-1.992h4.08v13.44c0 1.072-.312 1.928-.936 2.568-.608.656-1.528.984-2.76.984Z" data-color="1"/>
        <path fill="#ffffff" d="M147.274 59.992c-2.048 0-3.552-.512-4.512-1.536-.944-1.024-1.416-2.488-1.416-4.392 0-1.904.48-3.368 1.44-4.392.96-1.024 2.456-1.536 4.488-1.536 2.048 0 3.552.512 4.512 1.536.96 1.024 1.44 2.488 1.44 4.392 0 1.904-.48 3.368-1.44 4.392-.944 1.024-2.448 1.536-4.512 1.536Zm0-2.208c1.2 0 2.048-.288 2.544-.864.512-.592.768-1.544.768-2.856 0-1.312-.256-2.256-.768-2.832-.496-.576-1.344-.864-2.544-.864-1.184 0-2.032.288-2.544.864-.496.576-.744 1.52-.744 2.832 0 1.312.248 2.264.744 2.856.512.576 1.36.864 2.544.864Z" data-color="1"/>
    </g>
</svg>
