<?xml version="1.0" encoding="UTF-8"?>
<svg data-bbox="0 0 69.634 67.675" xmlns="http://www.w3.org/2000/svg" viewBox="0 0 70 68" height="68" width="70" data-type="color">
    <g>
        <path fill="#1B09B0" d="M10.948 31.215c.423-1.893 1.271-3.114 2.27-4.09 1.762-1.721 4.22-2.937 7.783-4.682l.034-.017c3.212-1.574 7.405-3.628 10.653-7.06C35.2 11.653 37.311 6.71 37.311 0h-10.66c0 4.216-1.22 6.468-2.706 8.038-1.737 1.835-4.19 3.143-7.635 4.832l-.575.28c-3.031 1.48-6.926 3.38-9.965 6.348C2.21 22.976 0 27.665 0 34.113v3.066l31.966 18.598 5.36-9.215-26.378-15.347Z" clip-rule="evenodd" fill-rule="evenodd" data-color="1"/>
        <path fill="#1B09B0" d="M51.225 27.435c-1.77.813-3.102 2.335-3.548 3.233a5.296 5.296 0 0 1-.18.332l-5.385 9.149-9.187-5.408 5.302-9.007c1.547-2.993 4.615-6.18 8.55-7.987 4.294-1.972 9.801-2.342 15.203 1.085 5.213 3.308 7.37 7.993 7.627 12.586.238 4.26-1.154 8.129-2.335 10.581a5.291 5.291 0 0 1-.176.336l-14.498 25.34-9.253-5.294 14.397-25.163c.756-1.618 1.314-3.531 1.22-5.205-.077-1.397-.58-2.838-2.694-4.18-1.927-1.223-3.55-1.084-5.043-.398Z" clip-rule="evenodd" fill-rule="evenodd" data-color="1"/>
    </g>
</svg>
