<?xml version="1.0" encoding="UTF-8"?>
<svg data-bbox="0.36 0.234 332.413 60.62" xmlns="http://www.w3.org/2000/svg" viewBox="0 0 334 61" height="61" width="334" data-type="color">
    <g>
        <path fill="#00ffff" d="M10.166 28.195c.378-1.696 1.138-2.79 2.033-3.664 1.578-1.542 3.78-2.63 6.971-4.194l.03-.015c2.878-1.41 6.633-3.25 9.543-6.325C31.89 10.673 33.78 6.245 33.78.234h-9.55c0 3.777-1.093 5.794-2.423 7.2-1.556 1.644-3.753 2.816-6.84 4.328l-.515.252c-2.715 1.325-6.203 3.027-8.926 5.685C2.337 20.815.36 25.015.36 30.791v2.746l28.633 16.659 4.802-8.254-23.628-13.747Z" clip-rule="evenodd" fill-rule="evenodd" data-color="1"/>
        <path fill="#00ffff" d="M46.243 24.809c-1.585.728-2.778 2.091-3.178 2.896-.05.1-.104.2-.161.297l-4.824 8.195-8.23-4.844 4.75-8.068c1.386-2.68 4.134-5.536 7.658-7.154 3.847-1.767 8.78-2.098 13.618.972 4.67 2.963 6.602 7.16 6.832 11.274.213 3.815-1.034 7.28-2.09 9.478a4.77 4.77 0 0 1-.159.3L47.473 60.854l-8.288-4.742 12.895-22.54c.678-1.45 1.178-3.163 1.094-4.663-.07-1.25-.52-2.542-2.414-3.744-1.726-1.095-3.18-.97-4.517-.356Z" clip-rule="evenodd" fill-rule="evenodd" data-color="1"/>
        <path fill="#00ffff" d="M84.218 47.214c-2.784 0-4.768-.592-5.952-1.776-1.184-1.184-1.776-3.04-1.776-5.568V14.382h9.024v24.48c0 .704.144 1.184.432 1.44.288.224.736.336 1.344.336.416 0 .816-.032 1.2-.096.416-.064.8-.16 1.152-.288v6c-.832.32-1.648.56-2.448.72-.768.16-1.76.24-2.976.24Z" data-color="1"/>
        <path fill="#00ffff" d="M98.855 47.214c-2.656 0-4.736-.752-6.24-2.256-1.504-1.504-2.256-3.712-2.256-6.624V23.982h9.024v13.632c0 1.984 1.008 2.976 3.024 2.976a5.17 5.17 0 0 0 2.16-.48c.704-.32 1.264-.72 1.68-1.2V23.982h9.024v22.752h-8.448l-.24-1.728c-.896.64-2 1.168-3.312 1.584-1.28.416-2.752.624-4.416.624Z" data-color="1"/>
        <path fill="#00ffff" d="M132 47.214c-4.128 0-7.392-.976-9.792-2.928-2.4-1.984-3.6-4.96-3.6-8.928 0-2.688.56-4.912 1.68-6.672 1.12-1.76 2.688-3.056 4.704-3.888 2.016-.864 4.368-1.296 7.056-1.296 1.696 0 3.216.128 4.56.384a14.49 14.49 0 0 1 3.84 1.2v6.336c-1.888-.896-4.032-1.344-6.432-1.344-2.048 0-3.6.384-4.656 1.152-1.024.768-1.536 2.144-1.536 4.128 0 1.856.496 3.2 1.488 4.032.992.832 2.56 1.248 4.704 1.248a14.62 14.62 0 0 0 3.36-.384 15.34 15.34 0 0 0 3.12-1.2v6.624a15.591 15.591 0 0 1-3.936 1.152c-1.376.256-2.896.384-4.56.384Z" data-color="1"/>
        <path fill="#00ffff" d="M150.953 47.214c-1.44 0-2.784-.256-4.032-.768a6.513 6.513 0 0 1-2.928-2.4c-.736-1.088-1.104-2.464-1.104-4.128 0-2.4.8-4.256 2.4-5.568 1.6-1.344 4.016-2.016 7.248-2.016h5.904v-.432c0-.896-.368-1.552-1.104-1.968-.736-.416-2.032-.624-3.888-.624-2.624 0-5.216.4-7.776 1.2v-5.424c1.152-.448 2.592-.816 4.32-1.104 1.728-.32 3.488-.48 5.28-.48 3.616 0 6.48.736 8.592 2.208 2.112 1.472 3.168 3.808 3.168 7.008v14.016h-7.872l-.432-1.824c-.8.704-1.84 1.264-3.12 1.68-1.248.416-2.8.624-4.656.624Zm3.072-5.28c1.024 0 1.888-.176 2.592-.528.736-.352 1.344-.784 1.824-1.296v-2.832h-4.368c-1.984 0-2.976.784-2.976 2.352 0 1.536.976 2.304 2.928 2.304Z" data-color="1"/>
        <path fill="#00ffff" d="M180.01 47.214c-1.952 0-3.792-.144-5.52-.432-1.696-.256-3.04-.592-4.032-1.008v-6.48c1.12.512 2.448.912 3.984 1.2 1.568.288 2.896.432 3.984.432 1.152 0 2.016-.032 2.592-.096.608-.064.912-.336.912-.816 0-.544-.528-.96-1.584-1.248-1.056-.288-2.384-.704-3.984-1.248-2.08-.736-3.632-1.6-4.656-2.592-1.024-.992-1.536-2.432-1.536-4.32 0-2.272.896-4.016 2.688-5.232 1.792-1.248 4.608-1.872 8.448-1.872 1.472 0 2.992.112 4.56.336 1.568.224 2.8.48 3.696.768v6.336c-.96-.416-2.016-.72-3.168-.912-1.12-.192-2.144-.288-3.072-.288-1.024 0-1.936.048-2.736.144-.8.096-1.2.368-1.2.816 0 .512.448.88 1.344 1.104.928.224 2.16.576 3.696 1.056 1.728.512 3.072 1.072 4.032 1.68.992.608 1.68 1.344 2.064 2.208.416.864.624 1.936.624 3.216 0 2.304-.944 4.096-2.832 5.376-1.856 1.248-4.624 1.872-8.304 1.872Z" data-color="1"/>
        <path fill="#00ffff" d="M206.264 47.214c-1.44 0-2.784-.256-4.032-.768-1.216-.512-2.192-1.28-2.928-2.304-.736-1.056-1.104-2.352-1.104-3.888 0-2.176.736-3.92 2.208-5.232 1.504-1.344 3.808-2.016 6.912-2.016h7.296v-1.008c0-1.088-.176-1.952-.528-2.592-.32-.64-.928-1.104-1.824-1.392-.864-.288-2.144-.432-3.84-.432-2.688 0-5.2.4-7.536 1.2v-3.888c1.024-.416 2.272-.752 3.744-1.008 1.472-.256 3.056-.384 4.752-.384 3.328 0 5.856.672 7.584 2.016 1.76 1.344 2.64 3.536 2.64 6.576v14.64h-4.464l-.336-2.304c-.928.896-2.08 1.584-3.456 2.064-1.344.48-3.04.72-5.088.72Zm1.392-3.744c1.568 0 2.928-.256 4.08-.768 1.184-.544 2.144-1.264 2.88-2.16v-3.984h-7.2c-1.536 0-2.656.304-3.36.912-.672.576-1.008 1.472-1.008 2.688 0 1.184.4 2.032 1.2 2.544.8.512 1.936.768 3.408.768Z" data-color="1"/>
        <path fill="#00ffff" d="M225.41 46.734V23.982h4.8l.288 2.64c1.088-.704 2.384-1.344 3.888-1.92a21.531 21.531 0 0 1 4.464-1.2v3.984c-.896.16-1.872.4-2.928.72-1.024.288-2 .624-2.928 1.008-.928.352-1.712.72-2.352 1.104v16.416h-5.232Z" data-color="1"/>
        <path fill="#00ffff" d="M248.311 47.214c-1.44 0-2.784-.256-4.032-.768-1.216-.512-2.192-1.28-2.928-2.304-.736-1.056-1.104-2.352-1.104-3.888 0-2.176.736-3.92 2.208-5.232 1.504-1.344 3.808-2.016 6.912-2.016h7.296v-1.008c0-1.088-.176-1.952-.528-2.592-.32-.64-.928-1.104-1.824-1.392-.864-.288-2.144-.432-3.84-.432-2.688 0-5.2.4-7.536 1.2v-3.888c1.024-.416 2.272-.752 3.744-1.008 1.472-.256 3.056-.384 4.752-.384 3.328 0 5.856.672 7.584 2.016 1.76 1.344 2.64 3.536 2.64 6.576v14.64h-4.464l-.336-2.304c-.928.896-2.08 1.584-3.456 2.064-1.344.48-3.04.72-5.088.72Zm1.392-3.744c1.568 0 2.928-.256 4.08-.768 1.184-.544 2.144-1.264 2.88-2.16v-3.984h-7.2c-1.536 0-2.656.304-3.36.912-.672.576-1.008 1.472-1.008 2.688 0 1.184.4 2.032 1.2 2.544.8.512 1.936.768 3.408.768Z" data-color="1"/>
        <path fill="#00ffff" d="M275.665 47.214c-2.72 0-4.816-.752-6.288-2.256-1.44-1.504-2.16-3.712-2.16-6.624V23.982h5.232v14.352c0 1.696.416 2.944 1.248 3.744.832.8 2.112 1.2 3.84 1.2 1.28 0 2.464-.24 3.552-.72a9.228 9.228 0 0 0 2.832-1.92V23.982h5.184v22.752h-4.752l-.24-2.352c-1.024.8-2.24 1.472-3.648 2.016s-3.008.816-4.8.816Z" data-color="1"/>
        <path fill="#00ffff" d="M298.231 19.23v-4.32h5.712v4.32h-5.712Zm-1.68 38.736c-1.856 0-3.44-.256-4.752-.768v-3.792c.544.16 1.056.272 1.536.336.512.096.976.144 1.392.144 1.504 0 2.544-.272 3.12-.816.608-.544.912-1.44.912-2.688V27.966h-3.456l.48-3.984h8.16v26.88c0 2.144-.624 3.856-1.872 5.136-1.216 1.312-3.056 1.968-5.52 1.968Z" data-color="1"/>
        <path fill="#00ffff" d="M320.869 47.214c-4.096 0-7.104-1.024-9.024-3.072-1.888-2.048-2.832-4.976-2.832-8.784 0-3.808.96-6.736 2.88-8.784 1.92-2.048 4.912-3.072 8.976-3.072 4.096 0 7.104 1.024 9.024 3.072 1.92 2.048 2.88 4.976 2.88 8.784 0 3.808-.96 6.736-2.88 8.784-1.888 2.048-4.896 3.072-9.024 3.072Zm0-4.416c2.4 0 4.096-.576 5.088-1.728 1.024-1.184 1.536-3.088 1.536-5.712 0-2.624-.512-4.512-1.536-5.664-.992-1.152-2.688-1.728-5.088-1.728-2.368 0-4.064.576-5.088 1.728-.992 1.152-1.488 3.04-1.488 5.664 0 2.624.496 4.528 1.488 5.712 1.024 1.152 2.72 1.728 5.088 1.728Z" data-color="1"/>
    </g>
</svg>
